<svg width="17" height="18" viewBox="0 0 17 18" fill="none" xmlns="http://www.w3.org/2000/svg">
<path id="Vector" d="M16.9602 13.3156C16.7621 13.1046 16.0627 12.4807 14.7771 11.6554C13.4819 10.8228 12.5268 10.3037 12.2528 10.1827C12.2287 10.172 12.2021 10.168 12.1759 10.1713C12.1496 10.1746 12.1248 10.1849 12.1041 10.2013C11.6627 10.5454 10.9197 11.1776 10.8799 11.2118C10.6226 11.4323 10.6226 11.4323 10.412 11.3636C10.0416 11.2421 8.89106 10.6312 7.88848 9.62636C6.88591 8.62152 6.24346 7.4425 6.12203 7.07251C6.05259 6.86153 6.05259 6.86153 6.27382 6.60425C6.30797 6.5644 6.94056 5.8214 7.28474 5.38045C7.30106 5.35969 7.31142 5.33487 7.3147 5.30866C7.31797 5.28245 7.31405 5.25584 7.30334 5.2317C7.18228 4.95734 6.66316 4.00259 5.83059 2.70745C5.0041 1.42218 4.381 0.722818 4.17001 0.524734C4.15065 0.506463 4.12672 0.493753 4.10074 0.487943C4.07476 0.482133 4.0477 0.483438 4.0224 0.49172C3.28488 0.745163 2.57329 1.06855 1.89734 1.45747C1.24481 1.8368 0.627029 2.27299 0.0512005 2.76096C0.0310996 2.77805 0.0160296 2.80029 0.0076063 2.82529C-0.000816952 2.85029 -0.00227558 2.87711 0.00338675 2.90288C0.0826969 3.27249 0.461792 4.81542 1.63816 6.9526C2.83844 9.1338 3.67025 10.2513 5.43291 12.0079C7.19556 13.7645 8.34841 14.6464 10.5319 15.8467C12.6691 17.023 14.2128 17.4025 14.5817 17.481C14.6075 17.4866 14.6343 17.4852 14.6594 17.4767C14.6844 17.4683 14.7068 17.4533 14.724 17.4332C15.2118 16.8574 15.6479 16.2396 16.0271 15.5871C16.4159 14.9111 16.7393 14.1995 16.9928 13.4621C17.0009 13.4369 17.0022 13.4101 16.9965 13.3844C16.9907 13.3586 16.9782 13.3349 16.9602 13.3156V13.3156Z" fill="#D1B06B"/>
</svg>
