<svg width="71" height="71" viewBox="0 0 71 71" fill="none" xmlns="http://www.w3.org/2000/svg">
<g id="Icon">
<rect id="Background" x="0.5" y="0.105469" width="70" height="70" fill="#CCAA60"/>
<path id="Vector" d="M48.4368 42.4844C48.1222 42.1493 47.0114 41.1585 44.9695 39.8477C42.9125 38.5254 41.3955 37.7009 40.9604 37.5086C40.922 37.4916 40.8798 37.4854 40.8381 37.4906C40.7965 37.4958 40.7571 37.5122 40.7241 37.5382C40.0232 38.0848 38.8431 39.0889 38.7798 39.1431C38.3712 39.4933 38.3712 39.4933 38.0367 39.3842C37.4485 39.1913 35.6211 38.221 34.0288 36.6251C32.4365 35.0292 31.4161 33.1566 31.2232 32.569C31.1129 32.2339 31.1129 32.2339 31.4643 31.8253C31.5185 31.762 32.5232 30.5819 33.0699 29.8816C33.0958 29.8486 33.1123 29.8092 33.1175 29.7676C33.1227 29.7259 33.1164 29.6837 33.0994 29.6453C32.9072 29.2096 32.0827 27.6932 30.7604 25.6362C29.4477 23.5949 28.4581 22.4842 28.123 22.1696C28.0922 22.1405 28.0542 22.1204 28.0129 22.1111C27.9717 22.1019 27.9287 22.104 27.8885 22.1171C26.7172 22.5197 25.587 23.0333 24.5134 23.651C23.477 24.2534 22.4959 24.9462 21.5813 25.7212C21.5494 25.7484 21.5255 25.7837 21.5121 25.8234C21.4987 25.8631 21.4964 25.9057 21.5054 25.9466C21.6313 26.5336 22.2334 28.9842 24.1018 32.3785C26.0081 35.8428 27.3292 37.6177 30.1287 40.4076C32.9282 43.1974 34.7592 44.5981 38.2271 46.5044C41.6215 48.3727 44.0733 48.9754 44.6591 49.1002C44.7001 49.1091 44.7428 49.1067 44.7826 49.0934C44.8224 49.08 44.8578 49.0561 44.8851 49.0242C45.66 48.1097 46.3526 47.1285 46.9548 46.0921C47.5723 45.0185 48.086 43.8884 48.4886 42.7171C48.5015 42.6772 48.5035 42.6346 48.4944 42.5937C48.4853 42.5528 48.4654 42.5151 48.4368 42.4844Z" fill="white"/>
</g>
</svg>
