<svg width="64" height="56" viewBox="0 0 64 56" fill="none" xmlns="http://www.w3.org/2000/svg">
<g id="Icon">
<path id="Rectangle 414" d="M2 5.34765C2 3.41466 3.567 1.84766 5.5 1.84766H28.3358C30.2688 1.84766 31.8358 3.41466 31.8358 5.34766V53.8477H5.5C3.567 53.8477 2 52.2807 2 50.3477V5.34765Z" stroke="#F6FAFF" stroke-width="3"/>
<path id="Rectangle 415" d="M32.373 28.332C32.373 26.399 33.94 24.832 35.873 24.832H58.7089C60.6419 24.832 62.2089 26.399 62.2089 28.332V50.347C62.2089 52.28 60.6419 53.847 58.7089 53.847H32.373V28.332Z" stroke="#F6FAFF" stroke-width="3"/>
<g id="Vector">
<path d="M7.06738 11.1992C7.06738 10.6469 7.5151 10.1992 8.06738 10.1992H13.4554C14.0077 10.1992 14.4554 10.6469 14.4554 11.1992V13.3037C14.4554 13.856 14.0077 14.3037 13.4554 14.3037H8.06738C7.5151 14.3037 7.06738 13.856 7.06738 13.3037V11.1992Z" fill="#F6FAFF"/>
<path d="M37.4405 32.5425C37.4405 31.9902 37.8882 31.5425 38.4405 31.5425H43.8286C44.3809 31.5425 44.8286 31.9902 44.8286 32.5425V34.647C44.8286 35.1993 44.3809 35.647 43.8286 35.647H38.4405C37.8882 35.647 37.4405 35.1993 37.4405 34.647V32.5425Z" fill="#F6FAFF"/>
<path d="M7.06738 21.8709C7.06738 21.3186 7.5151 20.8709 8.06738 20.8709H13.4554C14.0077 20.8709 14.4554 21.3186 14.4554 21.8709V23.9753C14.4554 24.5276 14.0077 24.9753 13.4554 24.9753H8.06738C7.5151 24.9753 7.06738 24.5276 7.06738 23.9753V21.8709Z" fill="#F6FAFF"/>
<path d="M37.4405 42.3932C37.4405 41.841 37.8882 41.3932 38.4405 41.3932H43.8286C44.3809 41.3932 44.8286 41.841 44.8286 42.3932V44.4977C44.8286 45.05 44.3809 45.4977 43.8286 45.4977H38.4405C37.8882 45.4977 37.4405 45.05 37.4405 44.4977V42.3932Z" fill="#F6FAFF"/>
<path d="M7.06738 32.5425C7.06738 31.9902 7.5151 31.5425 8.06738 31.5425H13.4554C14.0077 31.5425 14.4554 31.9902 14.4554 32.5425V34.647C14.4554 35.1993 14.0077 35.647 13.4554 35.647H8.06738C7.5151 35.647 7.06738 35.1993 7.06738 34.647V32.5425Z" fill="#F6FAFF"/>
<path d="M7.06738 43.2141C7.06738 42.6619 7.5151 42.2141 8.06738 42.2141H13.4554C14.0077 42.2141 14.4554 42.6619 14.4554 43.2141V45.3186C14.4554 45.8709 14.0077 46.3186 13.4554 46.3186H8.06738C7.5151 46.3186 7.06738 45.8709 7.06738 45.3186V43.2141Z" fill="#F6FAFF"/>
<path d="M19.3808 11.1992C19.3808 10.6469 19.8285 10.1992 20.3808 10.1992H25.7689C26.3212 10.1992 26.7689 10.6469 26.7689 11.1992V13.3037C26.7689 13.856 26.3212 14.3037 25.7689 14.3037H20.3808C19.8285 14.3037 19.3808 13.856 19.3808 13.3037V11.1992Z" fill="#F6FAFF"/>
<path d="M49.7539 32.5425C49.7539 31.9902 50.2017 31.5425 50.7539 31.5425H56.142C56.6943 31.5425 57.142 31.9902 57.142 32.5425V34.647C57.142 35.1993 56.6943 35.647 56.142 35.647H50.7539C50.2017 35.647 49.7539 35.1993 49.7539 34.647V32.5425Z" fill="#F6FAFF"/>
<path d="M19.3808 21.8709C19.3808 21.3186 19.8285 20.8709 20.3808 20.8709H25.7689C26.3212 20.8709 26.7689 21.3186 26.7689 21.8709V23.9753C26.7689 24.5276 26.3212 24.9753 25.7689 24.9753H20.3808C19.8285 24.9753 19.3808 24.5276 19.3808 23.9753V21.8709Z" fill="#F6FAFF"/>
<path d="M49.7539 42.3932C49.7539 41.841 50.2017 41.3932 50.7539 41.3932H56.142C56.6943 41.3932 57.142 41.841 57.142 42.3932V44.4977C57.142 45.05 56.6943 45.4977 56.142 45.4977H50.7539C50.2017 45.4977 49.7539 45.05 49.7539 44.4977V42.3932Z" fill="#F6FAFF"/>
<path d="M19.3808 32.5425C19.3808 31.9902 19.8285 31.5425 20.3808 31.5425H25.7689C26.3212 31.5425 26.7689 31.9902 26.7689 32.5425V34.647C26.7689 35.1993 26.3212 35.647 25.7689 35.647H20.3808C19.8285 35.647 19.3808 35.1993 19.3808 34.647V32.5425Z" fill="#F6FAFF"/>
<path d="M19.3808 43.2141C19.3808 42.6619 19.8285 42.2141 20.3808 42.2141H25.7689C26.3212 42.2141 26.7689 42.6619 26.7689 43.2141V45.3186C26.7689 45.8709 26.3212 46.3186 25.7689 46.3186H20.3808C19.8285 46.3186 19.3808 45.8709 19.3808 45.3186V43.2141Z" fill="#F6FAFF"/>
</g>
</g>
</svg>
