<svg width="60" height="101" viewBox="0 0 60 101" fill="none" xmlns="http://www.w3.org/2000/svg">
<path id="Vector" d="M40.8583 59.3347L45.794 59.8528V100.027L32.1609 85.4697V62.3097L36.1205 64.2434L40.8583 59.3347ZM19.13 59.3347L14.1918 59.8528V100.027L27.8246 85.4697V62.3097L23.8653 64.2434L19.13 59.3347ZM56.517 34.1652L58.1142 39.7247L53.3196 42.9573L52.9181 48.7337L47.3072 50.1304L44.9587 55.416L39.2066 54.8084L35.1903 58.9578L29.9942 56.4193L24.7981 58.9578L20.7818 54.7947L15.0296 55.4023L12.6811 50.1169L7.07026 48.7337L6.66874 42.9654L1.86048 39.7219L3.45787 34.1626L0.0678711 29.4791L3.46874 24.8008L1.86048 19.2523L6.65787 16.0197L7.05939 10.2513L12.6811 8.86821L15.0296 3.58278L20.7818 4.19017L24.7981 0.0273438L29.9942 2.56582L35.1903 0.0273438L39.2066 4.19017L44.9587 3.58278L47.3072 8.86821L52.9181 10.265L53.3196 16.0332L58.1142 19.2658L56.517 24.8254L59.9205 29.4791L56.517 34.1652ZM45.8183 29.4791C45.8183 26.373 44.8972 23.3366 43.1716 20.754C41.4459 18.1713 38.9932 16.1584 36.1235 14.9698C33.2538 13.7811 30.0961 13.4701 27.0497 14.0761C24.0032 14.682 21.2049 16.1778 19.0086 18.3741C16.8122 20.5705 15.3165 23.3688 14.7105 26.4152C14.1045 29.4617 14.4155 32.6194 15.6042 35.489C16.7929 38.3587 18.8058 40.8115 21.3884 42.5371C23.9711 44.2628 27.0074 45.1839 30.1135 45.1839C34.2767 45.1774 38.2675 43.5207 41.2113 40.5769C44.1551 37.6331 45.8118 33.6423 45.8183 29.4791ZM30.1135 18.1132C27.8656 18.1132 25.6682 18.7798 23.7991 20.0287C21.9301 21.2775 20.4733 23.0526 19.6131 25.1294C18.7528 27.2062 18.5277 29.4914 18.9662 31.6961C19.4048 33.9008 20.4872 35.926 22.0767 37.5155C23.6662 39.105 25.6914 40.1875 27.8961 40.6261C30.1008 41.0647 32.386 40.8396 34.4628 39.9794C36.5396 39.1192 38.3147 37.6625 39.5636 35.7934C40.8125 33.9244 41.4791 31.727 41.4792 29.4791C41.4706 26.4681 40.2701 23.583 38.1403 21.4547C36.0104 19.3264 33.1245 18.128 30.1135 18.1215V18.1132Z" fill="#AB8219"/>
</svg>
