<svg width="59" height="44" viewBox="0 0 59 44" fill="none" xmlns="http://www.w3.org/2000/svg">
<g id="Icon">
<path id="Vector" d="M54.6475 37.5015C56.5038 37.5015 57.8573 35.6061 57.4165 33.6472C55.8253 26.589 49.9567 21.3477 42.9618 21.3477C35.9669 21.3477 30.0948 26.589 28.5071 33.6509C28.0663 35.6098 29.4198 37.5015 31.2762 37.5015H54.6475Z" fill="#0B2A44" stroke="#F6FAFF" stroke-width="3" stroke-miterlimit="10"/>
<path id="Vector_2" d="M27.7241 37.5015C29.5805 37.5015 30.934 35.6061 30.4931 33.6472C28.902 26.589 23.0333 21.3477 16.0385 21.3477C9.04361 21.3477 3.1715 26.589 1.5838 33.6509C1.14296 35.6098 2.49647 37.5015 4.35281 37.5015H27.7241Z" fill="#0B2A44" stroke="#F6FAFF" stroke-width="3" stroke-miterlimit="10"/>
<path id="Vector_3" d="M38.1562 41.809C39.5313 41.809 40.5339 40.4191 40.2073 38.9825C39.0287 33.8065 34.6816 29.9629 29.5002 29.9629C24.3188 29.9629 19.9691 33.8065 18.793 38.9853C18.4665 40.4218 19.4691 41.809 20.8442 41.809H38.1562Z" fill="#0B2A44" stroke="#F6FAFF" stroke-width="3" stroke-miterlimit="10"/>
<path id="Vector_4" d="M49.5384 9.5021C49.5384 13.4318 46.3527 16.6175 42.423 16.6175C38.4933 16.6175 35.3076 13.4318 35.3076 9.5021C35.3076 5.57238 38.4933 2.38672 42.423 2.38672C46.3527 2.38672 49.5384 5.57238 49.5384 9.5021Z" stroke="#F6FAFF" stroke-width="3" stroke-miterlimit="10"/>
<path id="Vector_5" d="M23.6922 9.5021C23.6922 13.4318 20.5065 16.6175 16.5768 16.6175C12.6471 16.6175 9.46143 13.4318 9.46143 9.5021C9.46143 5.57238 12.6471 2.38672 16.5768 2.38672C20.5065 2.38672 23.6922 5.57238 23.6922 9.5021Z" stroke="#F6FAFF" stroke-width="3" stroke-miterlimit="10"/>
<path id="Vector_6" d="M34.4617 21.3483C34.4617 24.0884 32.2403 26.3098 29.5001 26.3098C26.7599 26.3098 24.5386 24.0884 24.5386 21.3483C24.5386 18.6081 26.7599 16.3867 29.5001 16.3867C32.2403 16.3867 34.4617 18.6081 34.4617 21.3483Z" stroke="#F6FAFF" stroke-width="3" stroke-miterlimit="10"/>
</g>
</svg>
