<svg width="42" height="39" viewBox="0 0 42 39" fill="none" xmlns="http://www.w3.org/2000/svg">
<g id="clarity:users-line" clip-path="url(#clip0_85_68)">
<path id="Vector" d="M20.8632 18.3987C24.5532 18.3987 27.4232 15.4129 27.4232 11.7487C27.4232 8.08437 24.4165 5.23438 20.7265 5.23438C17.0365 5.23438 14.1665 8.22009 14.1665 11.7487C14.1665 15.4129 17.1732 18.3987 20.8632 18.3987ZM20.7265 7.94866C20.8632 7.94866 20.8632 7.94866 20.7265 7.94866C22.9132 7.94866 24.6898 9.71295 24.6898 11.8844C24.6898 14.0558 22.9132 15.6844 20.7265 15.6844C18.5398 15.6844 16.8998 13.9201 16.8998 11.8844C16.8998 9.71295 18.6765 7.94866 20.7265 7.94866Z" fill="#DBBC80"/>
<path id="Vector_2" d="M41.0902 17.5828C38.4935 15.2756 35.0769 14.0542 31.5235 14.1899H30.4302C30.1569 15.2756 29.7469 16.2256 29.2002 17.0399C30.0202 16.9042 30.7035 16.9042 31.5235 16.9042C34.1202 16.7685 36.7169 17.5828 38.7669 19.0756V28.847H41.5002V17.9899L41.0902 17.5828Z" fill="#DBBC80"/>
<path id="Vector_3" d="M28.3801 5.50391C29.0635 3.87533 30.9768 3.06105 32.7535 3.73962C34.3935 4.41819 35.2135 6.31819 34.5301 8.08248C33.9835 9.30391 32.7535 10.1182 31.5235 10.1182C31.2501 10.1182 30.8401 10.1182 30.5668 9.98248C30.7035 10.661 30.7035 11.3396 30.7035 11.8825V12.6968C30.9768 12.6968 31.2501 12.8325 31.5235 12.8325C34.9401 12.8325 37.6735 10.1182 37.6735 6.86105C37.6735 3.46819 34.9401 0.753906 31.6601 0.753906C29.4735 0.753906 27.5601 1.83962 26.4668 3.73962C27.1501 4.14676 27.8335 4.68962 28.3801 5.50391Z" fill="#DBBC80"/>
<path id="Vector_4" d="M12.8 17.1766C12.2533 16.3623 11.8433 15.4124 11.57 14.3266H10.4767C6.92333 14.1909 3.50667 15.4124 0.91 17.5838L0.5 17.9909V28.8481H3.23333V19.0766C5.42 17.5838 7.88 16.7695 10.4767 16.9052C11.2967 16.9052 12.1167 17.0409 12.8 17.1766Z" fill="#DBBC80"/>
<path id="Vector_5" d="M10.4766 12.6986C10.7499 12.6986 11.0233 12.6986 11.2966 12.5629V11.7486C11.2966 11.07 11.2966 10.3914 11.4333 9.84857C11.1599 9.98428 10.7499 9.98428 10.4766 9.98428C8.69994 9.98428 7.19661 8.49143 7.19661 6.72714C7.19661 4.96285 8.69994 3.47 10.4766 3.47C11.8433 3.47 13.0733 4.28428 13.6199 5.50571C14.1666 4.82714 14.9866 4.14857 15.6699 3.60571C13.8933 0.755713 10.2033 -0.194287 7.33328 1.57C4.46328 3.33428 3.50661 6.99857 5.28328 9.84857C6.37661 11.6129 8.28994 12.6986 10.4766 12.6986Z" fill="#DBBC80"/>
<path id="Vector_6" d="M32.0702 25.726L31.7969 25.3189C29.0636 22.3331 25.2369 20.5689 21.1369 20.7046C17.0369 20.5689 13.0736 22.3331 10.3402 25.3189L10.0669 25.726V36.0403C10.0669 37.2617 11.0236 38.3474 12.3902 38.3474H29.8836C31.1136 38.3474 32.2069 37.2617 32.2069 36.0403V25.726H32.0702ZM29.3369 35.6331H12.8002V26.676C14.9869 24.5046 17.9936 23.4189 21.1369 23.4189C24.1436 23.2831 27.1502 24.5046 29.3369 26.676V35.6331Z" fill="#DBBC80"/>
</g>
<defs>
<clipPath id="clip0_85_68">
<rect width="41" height="38" fill="white" transform="translate(0.5 0.347656)"/>
</clipPath>
</defs>
</svg>
