<svg width="44" height="37" viewBox="0 0 44 37" fill="none" xmlns="http://www.w3.org/2000/svg">
<g id="006-balance" clip-path="url(#clip0_85_96)">
<g id="line icons">
<path id="Vector" d="M24.1552 32.4374H20.5116C20.3492 32.4374 20.1935 32.374 20.0787 32.2612C19.9639 32.1484 19.8994 31.9953 19.8994 31.8358V2.77691C19.8994 2.14247 20.1559 1.53402 20.6123 1.08541C21.0688 0.636794 21.6879 0.384766 22.3334 0.384766C22.9789 0.384766 23.598 0.636794 24.0545 1.08541C24.5109 1.53402 24.7674 2.14247 24.7674 2.77691V31.8364C24.7672 31.9958 24.7027 32.1487 24.5879 32.2614C24.4731 32.3741 24.3175 32.4374 24.1552 32.4374ZM21.1238 31.2341H23.543V2.77691C23.543 2.4616 23.4156 2.15922 23.1887 1.93626C22.9619 1.71331 22.6542 1.58806 22.3334 1.58806C22.0126 1.58806 21.7049 1.71331 21.478 1.93626C21.2512 2.15922 21.1238 2.4616 21.1238 2.77691V31.2341Z" fill="#D1B06B"/>
<path id="Vector_2" d="M7.58041 8.45016H5.47884C4.98023 8.44137 4.50506 8.24053 4.1556 7.89087C3.80615 7.5412 3.61035 7.07067 3.61035 6.58055C3.61035 6.09043 3.80615 5.6199 4.1556 5.27023C4.50506 4.92057 4.98023 4.71973 5.47884 4.71094H7.28229C7.44465 4.71094 7.60035 4.77433 7.71516 4.88716C7.82996 4.99999 7.89446 5.15302 7.89446 5.31258C7.89446 5.47215 7.82996 5.62518 7.71516 5.73801C7.60035 5.85084 7.44465 5.91423 7.28229 5.91423H5.47884C5.30256 5.91943 5.13527 5.99192 5.01245 6.11631C4.88963 6.2407 4.82094 6.40722 4.82094 6.58055C4.82094 6.75388 4.88963 6.9204 5.01245 7.04479C5.13527 7.16918 5.30256 7.24166 5.47884 7.24687H7.58041C7.74277 7.24687 7.89848 7.31026 8.01328 7.42309C8.12809 7.53592 8.19258 7.68895 8.19258 7.84852C8.19258 8.00808 8.12809 8.16111 8.01328 8.27394C7.89848 8.38677 7.74277 8.45016 7.58041 8.45016Z" fill="#D1B06B"/>
<path id="Vector_3" d="M20.512 8.45016H11.2836C11.1212 8.45016 10.9655 8.38677 10.8507 8.27394C10.7359 8.16111 10.6714 8.00808 10.6714 7.84852C10.6714 7.68895 10.7359 7.53592 10.8507 7.42309C10.9655 7.31026 11.1212 7.24687 11.2836 7.24687H19.8998V5.91423H11.5811C11.4187 5.91423 11.263 5.85084 11.1482 5.73801C11.0334 5.62518 10.9689 5.47215 10.9689 5.31258C10.9689 5.15302 11.0334 4.99999 11.1482 4.88716C11.263 4.77433 11.4187 4.71094 11.5811 4.71094H20.512C20.6743 4.71094 20.83 4.77433 20.9449 4.88716C21.0597 4.99999 21.1242 5.15302 21.1242 5.31258V7.84852C21.1242 8.00808 21.0597 8.16111 20.9449 8.27394C20.83 8.38677 20.6743 8.45016 20.512 8.45016Z" fill="#D1B06B"/>
<path id="Vector_4" d="M33.2506 8.45016H24.1556C23.9933 8.45016 23.8376 8.38677 23.7228 8.27394C23.608 8.16111 23.5435 8.00808 23.5435 7.84852V5.31258C23.5435 5.15302 23.608 4.99999 23.7228 4.88716C23.8376 4.77433 23.9933 4.71094 24.1556 4.71094H32.9531C33.1155 4.71094 33.2712 4.77433 33.386 4.88716C33.5008 4.99999 33.5653 5.15302 33.5653 5.31258C33.5653 5.47215 33.5008 5.62518 33.386 5.73801C33.2712 5.85084 33.1155 5.91423 32.9531 5.91423H24.7678V7.24687H33.2506C33.413 7.24687 33.5687 7.31026 33.6835 7.42309C33.7983 7.53592 33.8628 7.68895 33.8628 7.84852C33.8628 8.00808 33.7983 8.16111 33.6835 8.27394C33.5687 8.38677 33.413 8.45016 33.2506 8.45016Z" fill="#D1B06B"/>
<path id="Vector_5" d="M39.1822 8.45016H37.0868C36.9244 8.45016 36.7687 8.38677 36.6539 8.27394C36.5391 8.16111 36.4746 8.00808 36.4746 7.84852C36.4746 7.68895 36.5391 7.53592 36.6539 7.42309C36.7687 7.31026 36.9244 7.24687 37.0868 7.24687H39.1822C39.3585 7.24166 39.5258 7.16918 39.6486 7.04479C39.7714 6.9204 39.8401 6.75388 39.8401 6.58055C39.8401 6.40722 39.7714 6.2407 39.6486 6.11631C39.5258 5.99192 39.3585 5.91943 39.1822 5.91423H37.3886C37.2262 5.91423 37.0705 5.85084 36.9557 5.73801C36.8409 5.62518 36.7764 5.47215 36.7764 5.31258C36.7764 5.15302 36.8409 4.99999 36.9557 4.88716C37.0705 4.77433 37.2262 4.71094 37.3886 4.71094H39.1822C39.6808 4.71973 40.156 4.92057 40.5055 5.27023C40.8549 5.6199 41.0507 6.09043 41.0507 6.58055C41.0507 7.07067 40.8549 7.5412 40.5055 7.89087C40.156 8.24053 39.6808 8.44137 39.1822 8.45016Z" fill="#D1B06B"/>
<path id="Vector_6" d="M30.0868 36.3089H14.5806C14.4877 36.3089 14.396 36.2881 14.3125 36.248C14.229 36.208 14.1558 36.1498 14.0986 36.0778C14.0414 36.0059 14.0016 35.922 13.9822 35.8327C13.9628 35.7434 13.9644 35.6509 13.9868 35.5623C14.2392 34.3725 14.8892 33.2997 15.8334 32.5148C16.7776 31.7298 17.9618 31.2778 19.1976 31.2305H25.4698C26.7056 31.2778 27.8898 31.7298 28.834 32.5148C29.7782 33.2997 30.4282 34.3725 30.6806 35.5623C30.703 35.6509 30.7046 35.7434 30.6852 35.8327C30.6658 35.922 30.626 36.0059 30.5688 36.0778C30.5116 36.1498 30.4384 36.208 30.3549 36.248C30.2714 36.2881 30.1797 36.3089 30.0868 36.3089ZM15.4272 35.1057H29.2402C28.9488 34.3455 28.4356 33.6867 27.7649 33.2119C27.0942 32.7372 26.2958 32.4675 25.4698 32.4368H19.1976C18.3716 32.4675 17.5732 32.7372 16.9025 33.2119C16.2318 33.6867 15.7186 34.3455 15.4272 35.1057Z" fill="#D1B06B"/>
<path id="Vector_7" d="M31.7444 36.3088H12.9227C12.7604 36.3088 12.6046 36.2454 12.4898 36.1325C12.375 36.0197 12.3105 35.8667 12.3105 35.7071C12.3105 35.5475 12.375 35.3945 12.4898 35.2817C12.6046 35.1689 12.7604 35.1055 12.9227 35.1055H31.7444C31.9068 35.1055 32.0625 35.1689 32.1773 35.2817C32.2921 35.3945 32.3566 35.5475 32.3566 35.7071C32.3566 35.8667 32.2921 36.0197 32.1773 36.1325C32.0625 36.2454 31.9068 36.3088 31.7444 36.3088Z" fill="#D1B06B"/>
<path id="Vector_8" d="M43.1475 23.5364H27.3284C27.226 23.5364 27.1251 23.5112 27.0351 23.463C26.9451 23.4148 26.8689 23.3452 26.8134 23.2606C26.7579 23.1759 26.7249 23.0789 26.7174 22.9784C26.71 22.878 26.7283 22.7773 26.7707 22.6856L33.4924 8.14147C33.5254 8.06932 33.5727 8.00429 33.6314 7.95012C33.6901 7.89595 33.7591 7.85369 33.8345 7.82578C33.9099 7.79786 33.9901 7.78483 34.0706 7.78744C34.1511 7.79004 34.2302 7.80823 34.3036 7.84095C34.3769 7.87368 34.4429 7.92031 34.4979 7.97816C34.5528 8.03601 34.5956 8.10395 34.6238 8.17809C34.652 8.25222 34.6651 8.3311 34.6622 8.4102C34.6593 8.4893 34.6406 8.56706 34.6071 8.63903L28.2785 22.3331H42.1949L35.8718 8.63903C35.8386 8.56706 35.8202 8.48936 35.8175 8.41037C35.8149 8.33139 35.8281 8.25266 35.8564 8.17869C35.8847 8.10472 35.9276 8.03696 35.9825 7.97927C36.0375 7.92158 36.1035 7.87509 36.1767 7.84246C36.2499 7.80983 36.329 7.79169 36.4094 7.78909C36.4897 7.78649 36.5698 7.79947 36.6451 7.82729C36.7204 7.85511 36.7893 7.89723 36.848 7.95124C36.9067 8.00525 36.954 8.0701 36.9872 8.14208L43.7021 22.6862C43.7443 22.7777 43.7625 22.878 43.7551 22.9781C43.7478 23.0782 43.715 23.175 43.6599 23.2595C43.6048 23.344 43.529 23.4136 43.4395 23.4619C43.35 23.5103 43.2496 23.5359 43.1475 23.5364Z" fill="#D1B06B"/>
<path id="Vector_9" d="M35.3007 31.2107H35.1734C30.2718 31.2107 26.7139 27.7308 26.7139 22.9356C26.7139 22.7761 26.7784 22.623 26.8932 22.5102C27.008 22.3974 27.1637 22.334 27.326 22.334H43.1475C43.3099 22.334 43.4656 22.3974 43.5804 22.5102C43.6952 22.623 43.7597 22.7761 43.7597 22.9356C43.7597 27.7338 40.2017 31.2107 35.3007 31.2107ZM27.9596 23.5373C28.2327 27.377 31.1215 30.0074 35.1734 30.0074H35.3007C39.3521 30.0074 42.2415 27.377 42.5139 23.5373H27.9596Z" fill="#D1B06B"/>
<path id="Vector_10" d="M35.2366 9.30795C34.6413 9.30807 34.0594 9.13469 33.5644 8.80974C33.0694 8.48479 32.6836 8.02287 32.4558 7.4824C32.2279 6.94193 32.1683 6.34719 32.2844 5.7734C32.4005 5.19961 32.6871 4.67254 33.108 4.25887C33.5289 3.84519 34.0652 3.56349 34.649 3.44938C35.2328 3.33528 35.838 3.3939 36.3879 3.61783C36.9378 3.84177 37.4078 4.22096 37.7385 4.70744C38.0691 5.19392 38.2455 5.76584 38.2454 6.35087C38.2444 7.13484 37.9271 7.88643 37.3631 8.44079C36.799 8.99514 36.0343 9.307 35.2366 9.30795ZM35.2366 4.59647C34.8835 4.59635 34.5383 4.69914 34.2447 4.89185C33.951 5.08455 33.7222 5.35851 33.587 5.67907C33.4518 5.99964 33.4163 6.35241 33.4851 6.69276C33.5539 7.03312 33.7239 7.34578 33.9735 7.5912C34.2231 7.83662 34.5412 8.00377 34.8875 8.07151C35.2338 8.13925 35.5927 8.10455 35.9189 7.97178C36.2452 7.83901 36.524 7.61414 36.7202 7.32562C36.9163 7.0371 37.021 6.69788 37.021 6.35087C37.0206 5.88582 36.8324 5.43995 36.4979 5.11106C36.1634 4.78217 35.7098 4.59711 35.2366 4.59647Z" fill="#D1B06B"/>
<path id="Vector_11" d="M17.3381 23.536H1.51971C1.41729 23.536 1.31651 23.5107 1.2266 23.4625C1.13669 23.4143 1.06054 23.3446 1.00511 23.26C0.949675 23.1753 0.916742 23.0784 0.909323 22.978C0.901904 22.8776 0.920236 22.7769 0.96264 22.6853L7.68547 8.14115C7.7526 7.99578 7.87574 7.88258 8.0278 7.82645C8.17986 7.77032 8.34837 7.77585 8.49628 7.84183C8.64419 7.90781 8.75937 8.02883 8.81648 8.17828C8.8736 8.32772 8.86797 8.49334 8.80084 8.63871L2.47225 22.3327H16.3887L10.0656 8.63871C10.0304 8.5665 10.0103 8.48813 10.0063 8.40817C10.0024 8.32822 10.0147 8.2483 10.0426 8.17308C10.0704 8.09787 10.1133 8.02888 10.1687 7.97015C10.224 7.91142 10.2907 7.86414 10.3649 7.83108C10.4391 7.79801 10.5192 7.77982 10.6006 7.77758C10.682 7.77534 10.7631 7.78909 10.839 7.81802C10.915 7.84695 10.9843 7.89049 11.0429 7.94608C11.1015 8.00166 11.1482 8.06819 11.1803 8.14175L17.8958 22.6859C17.9381 22.7776 17.9563 22.8782 17.9488 22.9785C17.9413 23.0789 17.9083 23.1758 17.8528 23.2604C17.7973 23.345 17.7211 23.4145 17.6312 23.4627C17.5413 23.5108 17.4405 23.5361 17.3381 23.536Z" fill="#D1B06B"/>
<path id="Vector_12" d="M9.49398 31.2107H9.36665C4.46563 31.2107 0.907715 27.7338 0.907715 22.9356C0.907715 22.7761 0.972211 22.623 1.08701 22.5102C1.20182 22.3974 1.35753 22.334 1.51988 22.334H17.3414C17.5037 22.334 17.6594 22.3974 17.7742 22.5102C17.889 22.623 17.9535 22.7761 17.9535 22.9356C17.9535 27.7338 14.3956 31.2107 9.49398 31.2107ZM2.15348 23.5373C2.42589 27.377 5.31532 30.0074 9.36665 30.0074H9.49398C13.5459 30.0074 16.4347 27.377 16.7078 23.5373H2.15348Z" fill="#D1B06B"/>
<path id="Vector_13" d="M9.43032 9.30795C8.83508 9.30795 8.25322 9.13447 7.75831 8.80945C7.2634 8.48443 6.87768 8.02247 6.64992 7.48198C6.42216 6.9415 6.3626 6.34678 6.47877 5.77303C6.59494 5.19928 6.88162 4.67227 7.30255 4.25865C7.72349 3.84504 8.25977 3.56339 8.84358 3.44934C9.42739 3.33528 10.0325 3.39394 10.5824 3.61789C11.1323 3.84185 11.6022 4.22103 11.9329 4.7075C12.2635 5.19397 12.4399 5.76587 12.4397 6.35087C12.4388 7.13495 12.1214 7.88663 11.5572 8.441C10.993 8.99537 10.2281 9.30716 9.43032 9.30795ZM9.43032 4.59647C9.07726 4.59647 8.73213 4.69936 8.43858 4.89214C8.14502 5.08492 7.91623 5.35892 7.78112 5.67949C7.64601 6.00006 7.61066 6.35281 7.67954 6.69313C7.74841 7.03345 7.91843 7.34606 8.16807 7.59141C8.41772 7.83677 8.73579 8.00386 9.08206 8.07155C9.42834 8.13925 9.78726 8.10451 10.1134 7.97172C10.4396 7.83893 10.7184 7.61407 10.9146 7.32556C11.1107 7.03705 11.2154 6.69786 11.2154 6.35087C11.2149 5.88572 11.0267 5.43976 10.692 5.11085C10.3574 4.78194 9.9036 4.59695 9.43032 4.59647Z" fill="#D1B06B"/>
</g>
</g>
<defs>
<clipPath id="clip0_85_96">
<rect width="43" height="36" fill="white" transform="translate(0.833496 0.347656)"/>
</clipPath>
</defs>
</svg>
