<svg width="43" height="45" viewBox="0 0 43 45" fill="none" xmlns="http://www.w3.org/2000/svg">
<g id="005-accept" clip-path="url(#clip0_85_80)">
<path id="Vector" d="M14.4561 8.82422H6.7627C6.05069 8.82422 5.47363 9.40128 5.47363 10.1133C5.47363 10.8253 6.05069 11.4023 6.7627 11.4023H14.4561C15.1678 11.4023 15.7452 10.8253 15.7452 10.1133C15.7452 9.40128 15.1678 8.82422 14.4561 8.82422Z" fill="#D1B06B"/>
<path id="Vector_2" d="M14.4561 13.9805H6.7627C6.05069 13.9805 5.47363 14.5575 5.47363 15.2695C5.47363 15.9815 6.05069 16.5586 6.7627 16.5586H14.4561C15.1678 16.5586 15.7452 15.9815 15.7452 15.2695C15.7452 14.5575 15.1678 13.9805 14.4561 13.9805Z" fill="#D1B06B"/>
<path id="Vector_3" d="M14.4561 19.1367H6.7627C6.05069 19.1367 5.47363 19.7138 5.47363 20.4258C5.47363 21.1378 6.05069 21.7148 6.7627 21.7148H14.4561C15.1678 21.7148 15.7452 21.1378 15.7452 20.4258C15.7452 19.7138 15.1678 19.1367 14.4561 19.1367Z" fill="#D1B06B"/>
<path id="Vector_4" d="M14.4561 24.2949H6.7627C6.05069 24.2949 5.47363 24.872 5.47363 25.584C5.47363 26.296 6.05069 26.873 6.7627 26.873H14.4561C15.1678 26.873 15.7452 26.296 15.7452 25.584C15.7452 24.872 15.1678 24.2949 14.4561 24.2949Z" fill="#D1B06B"/>
<path id="Vector_5" d="M14.4561 29.5371H6.7627C6.05069 29.5371 5.47363 30.1145 5.47363 30.8262C5.47363 31.5382 6.05069 32.1152 6.7627 32.1152H14.4561C15.1678 32.1152 15.7452 31.5382 15.7452 30.8262C15.7452 30.1145 15.1678 29.5371 14.4561 29.5371Z" fill="#D1B06B"/>
<path id="Vector_6" d="M18.7852 11.4023H26.4786C27.1906 11.4023 27.7676 10.8253 27.7676 10.1133C27.7676 9.40128 27.1906 8.82422 26.4786 8.82422H18.7852C18.0735 8.82422 17.4961 9.40128 17.4961 10.1133C17.4961 10.8253 18.0735 11.4023 18.7852 11.4023Z" fill="#D1B06B"/>
<path id="Vector_7" d="M18.7852 16.5586H26.4786C27.1906 16.5586 27.7676 15.9815 27.7676 15.2695C27.7676 14.5575 27.1906 13.9805 26.4786 13.9805H18.7852C18.0735 13.9805 17.4961 14.5575 17.4961 15.2695C17.4961 15.9815 18.0735 16.5586 18.7852 16.5586Z" fill="#D1B06B"/>
<path id="Vector_8" d="M23.7796 20.4258C23.7796 19.7138 23.2025 19.1367 22.4905 19.1367H18.7852C18.0735 19.1367 17.4961 19.7138 17.4961 20.4258C17.4961 21.1378 18.0735 21.7148 18.7852 21.7148H22.4905C23.2025 21.7148 23.7796 21.1378 23.7796 20.4258Z" fill="#D1B06B"/>
<path id="Vector_9" d="M35.9913 30.0805C35.4361 29.635 34.6251 29.724 34.1793 30.2792L30.8592 34.4183L28.8038 32.9292C28.2274 32.5113 27.4211 32.6402 27.0035 33.2165C26.5859 33.7933 26.7148 34.5993 27.2911 35.0169L30.3403 37.2261C30.5685 37.3912 30.8331 37.4715 31.0959 37.4715C31.4742 37.4715 31.8482 37.3053 32.102 36.9887L36.1904 31.8926C36.6359 31.3373 36.5469 30.526 35.9913 30.0805Z" fill="#D1B06B"/>
<path id="Vector_10" d="M39.2496 26.1239C37.5705 24.4152 35.413 23.3383 33.0752 23.0211V5.53915C33.0752 2.6767 30.7462 0.347656 27.8837 0.347656H5.35834C2.49554 0.347656 0.166504 2.6767 0.166504 5.53915V35.4001C0.166504 38.2629 2.49554 40.5919 5.358 40.5919H23.475C25.5137 42.9868 28.445 44.3477 31.6163 44.3477C37.5194 44.3477 42.3219 39.5419 42.3219 33.6347C42.3219 30.8068 41.2309 28.1394 39.2496 26.1239ZM2.74463 35.4001V5.53915C2.74463 4.09836 3.91721 2.92578 5.35834 2.92578H27.8837C29.3248 2.92578 30.4971 4.09836 30.4971 5.53915V22.9801C25.1179 23.5417 20.9107 28.1055 20.9107 33.6347C20.9107 35.1671 21.2303 36.6489 21.8432 38.0135H5.35834C3.91721 38.0135 2.74463 36.8412 2.74463 35.4001ZM31.6163 41.7695C29.0418 41.7695 26.6752 40.5876 25.1226 38.5271C24.0538 37.1081 23.4885 35.4165 23.4885 33.6347C23.4885 29.1491 27.1348 25.4998 31.6163 25.4998C31.6586 25.4998 31.7012 25.5005 31.7435 25.5012L31.7633 25.5015C33.9027 25.5394 35.9084 26.4022 37.411 27.9309C38.9153 29.4613 39.7437 31.4872 39.7437 33.6347C39.7437 38.1202 36.0978 41.7695 31.6163 41.7695Z" fill="#D1B06B"/>
</g>
<defs>
<clipPath id="clip0_85_80">
<rect width="42.1953" height="44" fill="white" transform="translate(0.166504 0.347656)"/>
</clipPath>
</defs>
</svg>
