<svg width="58" height="52" viewBox="0 0 58 52" fill="none" xmlns="http://www.w3.org/2000/svg">
<path id="Icon" d="M41.7705 21.3804V32.8067M16.5246 21.3804L16.5246 32.8067M2.5 27.3477H54.5M7.5 49.8477H50.5C53.8137 49.8477 56.5 47.1614 56.5 43.8477V14.8477C56.5 11.5339 53.8137 8.84766 50.5 8.84766H7.5C4.18629 8.84766 1.5 11.5339 1.5 14.8477V43.8477C1.5 47.1614 4.18629 49.8477 7.5 49.8477ZM39.5 8.84766V4.84766C39.5 3.1908 38.1569 1.84766 36.5 1.84766H20.5C18.8431 1.84766 17.5 3.1908 17.5 4.84766V8.84766H39.5Z" stroke="#F6FAFF" stroke-width="3"/>
</svg>
