<svg width="45" height="45" viewBox="0 0 45 45" fill="none" xmlns="http://www.w3.org/2000/svg">
<g id="001-auction" clip-path="url(#clip0_85_116)">
<g id="Group">
<g id="Group_2">
<path id="Vector" d="M10.6214 15.3314C10.2862 14.9963 9.74138 14.9963 9.40631 15.3314C9.07029 15.6675 9.07029 16.2114 9.40631 16.5466C9.74146 16.8826 10.2863 16.8826 10.6214 16.5466C10.9573 16.2114 10.9573 15.6675 10.6214 15.3314Z" fill="#D1B06B"/>
</g>
</g>
<g id="Group_3">
<g id="Group_4">
<path id="Vector_2" d="M22.2593 38.8226C22.6382 38.3094 22.843 37.691 22.843 37.0409C22.843 35.3825 21.4938 34.0332 19.8353 34.0332H5.22639C4.42262 34.0332 3.66731 34.346 3.09952 34.914C2.53148 35.4819 2.21866 36.2372 2.21866 37.0409C2.21866 37.7069 2.4366 38.3227 2.80433 38.8216C1.43595 39.541 0.5 40.9762 0.5 42.6266V43.486C0.5 43.9606 0.884828 44.3454 1.35938 44.3454H23.7023C24.1768 44.3454 24.5616 43.9606 24.5616 43.486V42.6266C24.5616 40.977 23.6266 39.5424 22.2593 38.8226ZM4.31477 36.1291C4.55805 35.8858 4.88187 35.7518 5.22639 35.7518H19.8353C20.546 35.7518 21.1242 36.3301 21.1242 37.0408C21.1242 37.3854 20.9902 37.7091 20.7468 37.9525C20.5035 38.1958 20.1797 38.3298 19.8352 38.3298H5.22639C4.5156 38.3298 3.93741 37.7515 3.93741 37.0408C3.93741 36.6963 4.07139 36.3725 4.31477 36.1291ZM2.21866 42.6266C2.21866 41.2051 3.37521 40.0486 4.7967 40.0486H5.22639H19.8353H20.2649C21.6864 40.0486 22.843 41.2051 22.843 42.6266H2.21866Z" fill="#D1B06B"/>
</g>
</g>
<g id="Group_5">
<g id="Group_6">
<path id="Vector_3" d="M43.7003 36.452C43.4085 35.9997 43.0603 35.5997 42.6652 35.2632L38.6498 31.761C38.6185 31.7139 38.5822 31.6692 38.5407 31.6277C38.4709 31.558 38.3919 31.5036 38.3078 31.4629L35.8795 29.3449L24.6397 19.5402C25.0998 19.0593 25.3532 18.4303 25.3532 17.7614C25.3532 17.0724 25.085 16.4248 24.5975 15.9374C24.3848 15.7251 24.1432 15.5581 23.8849 15.4358L24.9248 14.3959C25.2154 14.4732 25.5141 14.5127 25.813 14.5127C26.693 14.5126 27.5732 14.1777 28.2432 13.5077C28.8927 12.8583 29.2504 11.995 29.2504 11.077C29.2504 10.1589 28.8927 9.29564 28.2433 8.64621L20.9516 1.35476C20.3022 0.705328 19.4389 0.347656 18.5206 0.347656C17.6027 0.347656 16.7396 0.705328 16.0902 1.35476C15.1927 2.25229 14.8973 3.52666 15.202 4.67323L4.82719 15.048C4.5405 14.9717 4.24221 14.9315 3.93748 14.9315C3.01898 14.9315 2.15608 15.2889 1.50716 15.9377C0.166883 17.278 0.166883 19.4589 1.50716 20.7992L8.7987 28.0909C9.46893 28.761 10.3492 29.0961 11.2294 29.0961C12.1098 29.0961 12.99 28.761 13.6603 28.0909C14.5578 27.1932 14.8533 25.919 14.5485 24.7724L15.5862 23.7346C15.7109 23.995 15.8801 24.2353 16.0903 24.4454C16.5772 24.9323 17.2246 25.2005 17.9135 25.2005C18.5817 25.2005 19.2104 24.9476 19.6921 24.488L31.6637 38.2427C31.6967 38.2942 31.7352 38.3433 31.7802 38.3883C31.7956 38.4037 31.8119 38.4177 31.8281 38.4316L35.3955 42.5303C35.4842 42.635 35.579 42.738 35.6774 42.8364C36.6571 43.8158 37.9513 44.3473 39.31 44.3473C39.5495 44.3473 39.7912 44.3308 40.0333 44.2973C41.6514 44.0733 43.0499 43.1053 43.8699 41.6411C44.7682 40.0364 44.7013 37.9991 43.7003 36.452ZM17.3057 2.57009C17.6304 2.24533 18.062 2.06641 18.5206 2.06641C18.9799 2.06641 19.4117 2.24533 19.7364 2.57009L27.028 9.86162C27.3528 10.1864 27.5316 10.618 27.5316 11.077C27.5316 11.536 27.3528 11.9677 27.0279 12.2925C26.3581 12.9625 25.2679 12.9625 24.598 12.2925L17.3061 5.00057C17.3059 5.0004 17.3058 5.00031 17.3057 5.00014C16.6356 4.33017 16.6356 3.24005 17.3057 2.57009ZM12.4449 26.8755C11.7748 27.5457 10.6842 27.5458 10.014 26.8755L2.72249 19.584C2.05227 18.9138 2.05227 17.8234 2.72249 17.1531C3.04665 16.8288 3.47823 16.6503 3.93748 16.6503C4.39664 16.6503 4.82796 16.8287 5.15203 17.1527L12.4449 24.4456C13.115 25.1154 13.115 26.2056 12.4449 26.8755ZM16.0631 20.8272L13.6602 23.2302L6.36787 15.9379L16.0902 6.21538L23.3825 13.5077L20.9752 15.9151C20.9674 15.9225 20.9597 15.9297 20.9515 15.9378L16.0927 20.7967C16.0827 20.8065 16.073 20.8169 16.0631 20.8272ZM19.1316 22.62C19.1299 22.6217 19.1282 22.6233 19.1265 22.6251L18.5213 23.2302C18.359 23.3925 18.1432 23.4819 17.9134 23.4819C17.6837 23.4819 17.4678 23.3925 17.3056 23.2301C17.1431 23.0677 17.0536 22.8517 17.0536 22.6218C17.0536 22.3968 17.1395 22.1851 17.2953 22.0255L22.1766 17.1441C22.5111 16.8188 23.052 16.8228 23.3826 17.1531C23.5451 17.3155 23.6345 17.5315 23.6345 17.7614C23.6345 17.9911 23.5453 18.2066 23.3826 18.3689L22.7809 18.9706C22.7768 18.9746 22.7727 18.9787 22.7686 18.9829L19.1316 22.62ZM20.9112 23.271L23.4228 20.7594L34.0569 30.035L30.1764 33.9155L20.9112 23.271ZM31.3075 35.2151L35.355 31.1674L36.6533 32.2998L32.4385 36.5147L31.3075 35.2151ZM42.3704 40.8015C41.8157 41.7918 40.8781 42.4453 39.7977 42.5949C38.7199 42.7441 37.6609 42.3891 36.8924 41.6209C36.8264 41.5549 36.7631 41.4861 36.7042 41.4163C36.7014 41.4131 36.6987 41.4098 36.6958 41.4066L33.5694 37.8143L37.9515 33.4321L41.5393 36.5617C41.542 36.5641 41.5448 36.5664 41.5476 36.5689C41.8162 36.7972 42.0545 37.0714 42.2567 37.3847C42.9065 38.3889 42.9521 39.7622 42.3704 40.8015Z" fill="#D1B06B"/>
</g>
</g>
<g id="Group_7">
<g id="Group_8">
<path id="Vector_4" d="M16.6976 9.25364C16.362 8.91806 15.818 8.91806 15.4823 9.25364L11.8362 12.8998C11.5006 13.2354 11.5006 13.7795 11.8362 14.115C12.004 14.2829 12.2239 14.3667 12.4438 14.3667C12.6637 14.3667 12.8837 14.2828 13.0515 14.115L16.6976 10.4689C17.0332 10.1334 17.0332 9.58931 16.6976 9.25364Z" fill="#D1B06B"/>
</g>
</g>
</g>
<defs>
<clipPath id="clip0_85_116">
<rect width="44" height="44" fill="white" transform="translate(0.5 0.347656)"/>
</clipPath>
</defs>
</svg>
