<svg width="18" height="15" viewBox="0 0 18 15" fill="none" xmlns="http://www.w3.org/2000/svg">
<g id="Icon">
<path id="Vector" d="M17.3571 0.285156H0.642857C0.472361 0.285156 0.308848 0.354117 0.188288 0.476868C0.0677294 0.599619 0 0.766105 0 0.939702V14.0306C0 14.2042 0.0677294 14.3707 0.188288 14.4934C0.308848 14.6162 0.472361 14.6852 0.642857 14.6852H17.3571C17.5276 14.6852 17.6912 14.6162 17.8117 14.4934C17.9323 14.3707 18 14.2042 18 14.0306V0.939702C18 0.766105 17.9323 0.599619 17.8117 0.476868C17.6912 0.354117 17.5276 0.285156 17.3571 0.285156ZM9.39455 8.65638C9.28173 8.74569 9.1429 8.79417 9 8.79417C8.8571 8.79417 8.71827 8.74569 8.60545 8.65638L2.31228 3.67284L3.10138 2.63947L9 7.31047L14.8986 2.63947L15.6877 3.67284L9.39455 8.65638Z" fill="#D1B06B"/>
</g>
</svg>
