<svg width="32" height="26" viewBox="0 0 32 26" fill="none" xmlns="http://www.w3.org/2000/svg">
<path id="&#226;&#128;&#156;" d="M14.45 3.81524L8.975 14.0152L5.525 14.9902C5.925 14.2402 6.375 13.6402 6.875 13.1902C7.375 12.6902 7.95 12.4402 8.6 12.4402C10.05 12.4402 11.35 13.0402 12.5 14.2402C13.7 15.3902 14.3 16.8902 14.3 18.7402C14.3 20.6902 13.625 22.3652 12.275 23.7652C10.975 25.1652 9.35 25.8652 7.4 25.8652C5.55 25.8652 3.925 25.1902 2.525 23.8402C1.175 22.4402 0.5 20.7402 0.5 18.7402C0.5 17.9402 0.65 17.0152 0.95 15.9652C1.3 14.9152 1.925 13.5402 2.825 11.8402L8.825 0.740234L14.45 3.81524ZM31.325 3.81524L25.85 14.0152L22.475 14.9902C22.825 14.2402 23.25 13.6402 23.75 13.1902C24.3 12.6902 24.875 12.4402 25.475 12.4402C26.925 12.4402 28.25 13.0402 29.45 14.2402C30.65 15.3902 31.25 16.8902 31.25 18.7402C31.25 20.6902 30.575 22.3652 29.225 23.7652C27.925 25.1652 26.3 25.8652 24.35 25.8652C22.5 25.8652 20.875 25.1902 19.475 23.8402C18.125 22.4402 17.45 20.7402 17.45 18.7402C17.45 17.9402 17.6 17.0152 17.9 15.9652C18.2 14.9152 18.8 13.5402 19.7 11.8402L25.775 0.740234L31.325 3.81524Z" fill="#D1B06B"/>
</svg>
