<svg width="74" height="74" viewBox="0 0 74 74" fill="none" xmlns="http://www.w3.org/2000/svg">
<g id="Icon">
<circle id="Background" cx="37" cy="36.7383" r="36.5" fill="#F6FAFF"/>
<g id="Icon_2">
<path id="Ellipse 15" d="M18.5 39.2383C18.5 41.6252 19.2902 43.9144 20.6967 45.6022C22.1032 47.2901 24.0109 48.2383 26 48.2383C27.9891 48.2383 29.8968 47.2901 31.3033 45.6022C32.7098 43.9144 33.5 41.6252 33.5 39.2383L26 39.2383L18.5 39.2383Z" fill="#0B2A44"/>
<path id="Ellipse 16" d="M40.5 39.2383C40.5 41.6252 41.2902 43.9144 42.6967 45.6022C44.1032 47.2901 46.0109 48.2383 48 48.2383C49.9891 48.2383 51.8968 47.2901 53.3033 45.6022C54.7098 43.9144 55.5 41.6252 55.5 39.2383L48 39.2383L40.5 39.2383Z" fill="#0B2A44"/>
<path id="Vector 19" d="M19.5 39.2383L25.1207 28.8616C25.4989 28.1633 26.5011 28.1633 26.8793 28.8616L32.5 39.2383" stroke="#0B2A44" stroke-width="2" stroke-linecap="round"/>
<path id="Vector 20" d="M41.5 39.2383L47.1207 28.8616C47.4989 28.1633 48.5011 28.1633 48.8793 28.8616L54.5 39.2383" stroke="#0B2A44" stroke-width="2" stroke-linecap="round"/>
<line id="Line 30" x1="25" y1="26.7383" x2="49" y2="26.7383" stroke="#0B2A44" stroke-width="3" stroke-linecap="round"/>
<line id="Line 31" x1="37" y1="48.7383" x2="37" y2="24.7383" stroke="#0B2A44" stroke-width="3" stroke-linecap="round"/>
</g>
</g>
</svg>
