<svg width="74" height="74" viewBox="0 0 74 74" fill="none" xmlns="http://www.w3.org/2000/svg">
<g id="ICon">
<circle id="Ellipse 13" cx="37" cy="36.7383" r="36.5" fill="#F6FAFF"/>
<g id="Group 9">
<path id="Union" fill-rule="evenodd" clip-rule="evenodd" d="M51.2776 22.6741L44.106 23.8796L30.2632 39.5667L28.8883 38.1918L26.8464 40.2337L28.3488 41.7361L24.4222 46.1858L27.7658 49.5294L32.2155 45.6028L33.5266 46.9139L35.5686 44.872L34.385 43.6884L50.072 29.8456L51.2776 22.6741ZM22.9069 44.6709L29.3385 51.1025L27.2965 53.1444L20.865 46.7129L22.9069 44.6709Z" fill="#0B2A44"/>
<path id="Subtract" fill-rule="evenodd" clip-rule="evenodd" d="M26.549 29.6835L25.3223 22.5332L32.4726 23.76L37.2533 29.1729L32.2149 34.6877L26.549 29.6835ZM35.1189 37.2526L42.2292 43.5326L40.9232 44.8387L42.9651 46.8806L44.3978 45.4479L48.846 49.3767L52.1657 46.0569L48.237 41.6087L49.6047 40.241L47.5628 38.1991L46.3217 39.4402L39.8327 32.0932L35.1189 37.2526ZM53.7931 44.4296L47.1536 51.0692L49.1955 53.1111L55.835 46.4715L53.7931 44.4296Z" fill="#0B2A44"/>
</g>
</g>
</svg>
