<svg width="74" height="74" viewBox="0 0 74 74" fill="none" xmlns="http://www.w3.org/2000/svg">
<g id="ICon">
<circle id="Ellipse 13" cx="37" cy="36.7383" r="36.5" fill="#F6FAFF"/>
<path id="Vector" d="M37.5 52.2383C37.9632 52.2377 38.4155 52.0962 38.798 51.8321C44.4653 47.942 46.9192 45.2747 48.2727 43.6071C51.1572 40.0524 52.5381 36.403 52.4992 32.4509C52.4538 27.922 48.8605 24.2383 44.489 24.2383C41.3104 24.2383 39.1088 26.0488 37.8267 27.5567C37.786 27.604 37.7359 27.6419 37.6795 27.6679C37.6232 27.6939 37.5619 27.7073 37.5 27.7073C37.4381 27.7073 37.3768 27.6939 37.3205 27.6679C37.2641 27.6419 37.2139 27.604 37.1733 27.5567C35.8912 26.0473 33.6896 24.2383 30.5109 24.2383C26.1395 24.2383 22.5462 27.922 22.5008 32.4516C22.4619 36.4044 23.8442 40.0539 26.7273 43.6079C28.0808 45.2755 30.5347 47.9428 36.202 51.8329C36.5846 52.0966 37.0369 52.2379 37.5 52.2383Z" fill="#0B2A44"/>
</g>
</svg>
